# xmcd
#
# Track frame offsets:
#	150
#	12498
#	26224
#	40589
#	57982
#	78912
#	93585
#	110013
#	127525
#	139723
#	155849
#	170866
#
# Disc length: 2656 seconds
#
# Revision: 2
# Processed by: cddbd v1.4PL0 Copyright (c) Steve Scherf et al.
# Submitted via: audiograbber 1.82.02
#
DISCID=9d0a5e0c
DTITLE=Sir Douglas Quintet - The Return of Doug Saldana
DYEAR=1900
DGENRE=
TTITLE0=Preach What You Live, Live What You Preach
TTITLE1=She's Huggin' You, But She's Lookin' At Me
TTITLE2=Keep Your Soul
TTITLE3=Papa Ain't Salty
TTITLE4=Stoned Faces Don't Lie
TTITLE5=Me and My Destiny
TTITLE6=Wasted Days, Wasted Nights
TTITLE7=The Railpak Dun Done In Del Monte
TTITLE8=Oh Lord, Please Let It Rain In Texas
TTITLE9=The Gypsy
TTITLE10=Michoacan
TTITLE11=Westside Blues Again
EXTD=
EXTT0=
EXTT1=
EXTT2=
EXTT3=
EXTT4=
EXTT5=
EXTT6=
EXTT7=
EXTT8=
EXTT9=
EXTT10=
EXTT11=
PLAYORDER=
